<?xml version="1.0" standalone="no"?>
<!DOCTYPE svg PUBLIC "-//W3C//DTD SVG 20010904//EN"
 "http://www.w3.org/TR/2001/REC-SVG-20010904/DTD/svg10.dtd">
<svg version="1.0" xmlns="http://www.w3.org/2000/svg"
 width="640.000000pt" height="640.000000pt" viewBox="0 0 640.000000 640.000000"
 preserveAspectRatio="xMidYMid meet">
<metadata>
Created by potrace 1.11, written by Peter Selinger 2001-2013
</metadata>
<g transform="translate(0.000000,640.000000) scale(0.100000,-0.100000)"
fill="#000000" stroke="none">
<path d="M7 6393 c-4 -3 -7 -1411 -7 -3127 0 -2884 1 -3119 16 -3104 15 15 23
10 101 -73 l85 -89 440 0 c492 0 464 -4 539 77 43 47 45 51 67 173 35 188 73
363 85 385 38 74 228 296 251 294 6 0 28 -35 48 -77 42 -86 85 -137 172 -203
32 -24 69 -52 81 -62 13 -9 43 -20 67 -23 62 -9 137 29 227 113 65 59 107 114
276 358 26 39 56 79 65 90 10 11 19 27 22 35 3 10 22 -4 63 -44 32 -31 78 -68
101 -82 50 -29 51 1 -6 -269 -21 -99 -43 -216 -49 -260 -7 -44 -16 -102 -21
-130 -8 -39 -39 -331 -40 -367 0 -13 18 -9 23 6 3 7 10 67 17 132 14 147 56
447 75 534 15 67 55 277 55 289 1 3 7 -5 15 -19 l13 -25 7 30 c11 51 23 73 64
118 24 26 44 60 51 87 11 43 13 45 47 45 33 0 37 3 45 35 14 54 17 62 27 56 5
-3 3 -33 -5 -68 -8 -35 -18 -112 -24 -171 -10 -116 -24 -155 -72 -190 -42 -32
-86 -27 -120 13 -19 23 -28 29 -28 18 0 -15 31 -46 73 -73 13 -9 13 -20 -4
-105 -50 -254 -87 -499 -91 -605 l-3 -60 37 -3 c48 -4 52 4 73 168 17 137 51
367 65 445 5 28 10 70 12 95 2 43 1 45 -27 50 -29 6 -30 6 -8 18 15 8 24 9 28
1 4 -6 22 7 43 32 51 58 61 78 62 119 1 63 28 192 43 203 8 7 26 34 40 60 23
43 25 54 17 90 -5 26 -5 46 1 53 5 6 39 14 77 17 152 13 465 128 625 230 31
20 59 32 62 28 2 -5 -1 -26 -8 -47 -8 -22 -25 -108 -38 -192 l-24 -154 -67
-39 c-36 -21 -69 -39 -72 -39 -3 0 -27 -13 -53 -28 -67 -39 -246 -115 -323
-137 -36 -10 -70 -23 -76 -29 -23 -22 -113 -379 -139 -551 -23 -153 -50 -433
-42 -441 15 -15 19 9 37 183 25 237 43 345 92 553 42 181 62 238 88 250 8 4
53 20 100 35 98 32 205 81 339 154 52 28 100 51 108 51 10 0 13 -21 13 -87 0
-160 48 -367 104 -449 39 -57 105 -123 145 -143 76 -39 224 -51 364 -30 92 14
243 73 432 169 154 78 320 152 366 163 68 17 421 79 474 84 54 5 70 2 135 -27
82 -36 193 -105 227 -142 24 -26 67 -189 82 -313 5 -44 19 -163 31 -265 12
-102 23 -187 25 -188 2 -2 10 -2 17 0 11 2 10 35 -9 183 -12 99 -27 218 -33
265 -10 88 -42 233 -62 285 -23 61 -106 126 -250 195 -89 44 -137 49 -239 29
-30 -6 -79 -14 -109 -19 -119 -19 -443 -80 -502 -95 -104 -26 -189 -56 -258
-91 -182 -91 -264 -122 -430 -160 -96 -23 -193 -15 -261 22 -92 49 -130 96
-166 204 -42 126 -54 211 -54 401 1 245 41 425 172 759 27 69 54 134 61 145
103 178 200 455 159 455 -12 0 -21 -26 -21 -60 0 -39 -18 -48 -26 -13 -3 15
-11 52 -18 81 l-13 52 26 1 c132 3 220 -4 257 -20 37 -17 47 -30 100 -132 32
-63 69 -141 80 -174 38 -108 46 -125 55 -125 12 0 11 24 -3 55 -6 14 -8 28 -5
31 11 12 142 -27 174 -52 40 -31 50 -64 58 -204 3 -63 10 -133 14 -155 13 -66
25 -15 17 73 -12 121 -12 125 0 129 5 2 46 -18 90 -45 44 -27 102 -54 129 -61
28 -7 70 -24 95 -39 48 -27 140 -119 140 -139 0 -6 20 -41 44 -78 49 -72 49
-70 -30 -79 -60 -7 -152 -42 -237 -90 -62 -34 -187 -140 -187 -157 0 -18 30
-9 45 14 23 35 143 122 209 151 155 68 305 86 392 47 45 -21 114 -77 115 -95
0 -6 26 -23 58 -39 43 -20 77 -47 123 -100 36 -39 70 -82 76 -93 14 -26 132
-383 132 -399 0 -6 16 -50 35 -97 52 -127 149 -438 175 -558 12 -58 26 -116
30 -130 5 -14 9 1403 9 3148 l1 3172 -3193 0 c-1757 0 -3197 -3 -3200 -7z
m3275 -507 c145 -31 231 -64 346 -132 90 -54 292 -207 292 -222 0 -4 31 -44
68 -89 117 -141 213 -357 267 -603 26 -121 40 -250 26 -250 -5 0 -12 8 -15 18
-16 48 -67 112 -102 127 -48 20 -60 19 -119 -9 -38 -17 -60 -37 -89 -78 -31
-45 -64 -128 -51 -128 2 0 18 26 35 58 39 71 57 94 105 126 89 61 153 18 222
-150 57 -137 76 -231 71 -352 -3 -86 -7 -105 -35 -162 -48 -98 -141 -203 -208
-235 -49 -24 -64 -27 -121 -22 -52 4 -63 2 -54 -8 32 -38 148 -21 217 33 19
13 36 22 39 19 12 -12 -40 -201 -79 -287 -27 -58 -32 -145 -18 -283 6 -62 16
-159 22 -217 13 -129 63 -428 90 -532 10 -42 19 -83 19 -91 0 -8 -44 -108 -99
-223 -54 -115 -120 -270 -146 -344 -26 -74 -55 -143 -63 -153 -15 -17 -49 -38
-162 -100 -52 -29 -177 -81 -320 -133 -69 -25 -216 -52 -226 -41 -4 4 4 21 18
39 35 46 158 284 158 305 0 12 -20 -2 -59 -44 -69 -72 -100 -92 -112 -72 -9
15 -62 209 -79 289 -6 30 -20 111 -30 180 l-19 125 32 25 c18 14 63 52 102 85
38 33 90 76 115 96 100 81 238 228 302 324 33 49 78 169 78 208 0 28 -1 27
-57 -30 -74 -76 -231 -192 -308 -229 -22 -10 -58 -30 -80 -45 -153 -102 -411
-199 -530 -199 -208 0 -498 264 -673 615 -67 134 -134 329 -192 556 -32 130
-64 248 -69 263 -14 37 -69 255 -87 346 -22 111 -28 281 -15 390 21 170 81
390 148 537 9 21 54 95 100 165 84 129 127 173 278 289 237 181 492 266 812
268 116 1 164 -4 255 -23z m-1852 -2886 c-28 -12 -71 -19 -115 -20 -38 0 -89
-5 -112 -9 -24 -5 -43 -7 -43 -5 0 2 15 11 33 21 28 15 115 26 252 31 27 1 26
-1 -15 -18z m-340 -130 c0 -11 -27 -17 -80 -18 l-35 -1 25 14 c29 16 90 20 90
5z m-150 -99 c33 -9 17 -17 -54 -26 -33 -4 -65 -9 -73 -12 -7 -3 -13 -1 -13 5
0 12 68 41 95 40 11 0 31 -3 45 -7z m1970 -325 c0 -3 -4 -8 -10 -11 -5 -3 -10
-1 -10 4 0 6 5 11 10 11 6 0 10 -2 10 -4z m-35 -151 c4 -30 8 -99 9 -152 l1
-98 -66 -126 c-37 -69 -74 -150 -84 -180 -9 -30 -28 -79 -41 -109 -12 -30 -37
-89 -54 -130 -39 -91 -181 -376 -216 -431 -14 -22 -34 -57 -46 -77 -45 -81
-180 -240 -236 -279 -92 -64 -145 -75 -254 -52 -71 15 -98 30 -148 82 -50 54
-68 82 -102 167 -39 96 -38 93 -29 194 11 116 45 194 99 231 45 30 81 32 116
4 26 -21 35 -62 16 -74 -5 -3 -10 -1 -10 4 0 6 -4 11 -10 11 -15 0 -12 -51 10
-145 23 -99 37 -130 77 -166 59 -55 115 -63 205 -29 107 41 136 85 234 351 78
209 85 232 125 379 31 114 49 159 160 385 62 126 85 161 143 222 38 40 74 73
82 73 8 0 15 -20 19 -55z m-49 -482 c-10 -10 -19 5 -10 18 6 11 8 11 12 0 2
-7 1 -15 -2 -18z m-373 -2 c30 -12 39 -33 27 -68 -5 -15 -25 -82 -46 -148 -20
-66 -43 -133 -51 -148 l-14 -28 -28 28 c-16 15 -38 35 -49 43 l-21 15 25 94
c13 52 33 110 44 129 24 40 19 53 -10 27 -22 -20 -54 -113 -65 -191 -10 -68
-19 -81 -73 -108 -125 -64 -256 -223 -288 -351 -9 -36 -20 -63 -24 -60 -5 3
-16 38 -26 79 -16 69 -16 76 -1 109 10 19 17 40 17 46 0 20 80 185 107 219 50
66 139 96 150 52 8 -31 18 -24 34 23 15 45 93 157 137 195 53 47 107 61 155
43z m-1704 -125 c-11 -68 -29 -81 -29 -21 0 29 29 99 38 91 2 -2 -2 -33 -9
-70z m2001 -44 c0 -5 -7 -17 -15 -28 -14 -18 -14 -17 -4 9 12 27 19 34 19 19z
m-32 -155 c35 -36 121 -80 190 -97 34 -9 42 -15 42 -33 0 -13 -5 -28 -11 -34
-5 -5 -17 -37 -25 -69 -8 -32 -20 -78 -26 -101 -8 -28 -27 -57 -60 -90 l-48
-48 -44 23 c-56 30 -140 111 -164 159 l-20 39 59 133 c32 73 59 137 59 142 0
17 16 9 48 -24z m-2063 -39 c-3 -13 -7 -45 -9 -71 -3 -30 -12 -57 -24 -70 -11
-12 -27 -35 -36 -52 -8 -16 -27 -43 -41 -60 -20 -23 -17 -13 14 45 23 41 41
85 41 97 0 12 4 24 8 27 4 3 14 28 22 55 13 49 36 74 25 29z m2458 -95 c15
-50 11 -76 -19 -116 -15 -21 -16 -21 -11 13 4 31 0 39 -36 73 -23 20 -47 37
-54 37 -6 0 -15 5 -18 10 -9 14 32 29 82 29 42 1 43 1 56 -46z m-967 12 c8
-21 -43 -104 -72 -117 -59 -27 -56 44 4 99 39 36 59 41 68 18z m845 -72 c-8
-48 -31 -56 -31 -10 0 36 6 47 25 47 8 0 10 -12 6 -37z m-2560 -285 c-11 -18
-21 -26 -21 -18 0 19 30 63 37 56 3 -3 -4 -20 -16 -38z m-64 -125 c-8 -16 -22
-46 -32 -68 -10 -22 -20 -34 -22 -28 -6 16 46 123 59 123 5 0 3 -12 -5 -27z
m2557 -137 c-4 -19 -13 -26 -30 -26 -33 0 -34 47 -1 59 29 12 40 0 31 -33z
m-2614 18 c0 -4 -9 -25 -19 -48 -27 -57 -34 -77 -37 -105 -3 -27 -20 -48 -30
-38 -4 3 3 27 15 52 11 24 21 51 21 59 0 8 4 17 9 21 5 3 12 19 16 35 4 17 11
30 16 30 5 0 9 -3 9 -6z m2600 -89 c0 -27 -29 -48 -49 -36 -17 11 -5 48 17 54
30 8 32 7 32 -18z m-10 -74 c0 -25 -14 -41 -36 -41 -25 0 -28 7 -18 34 6 17
54 23 54 7z m-2704 -106 c-9 -13 -16 -31 -16 -40 0 -8 -4 -15 -10 -15 -5 0 -3
18 5 41 19 54 27 67 33 51 2 -7 -3 -24 -12 -37z m2684 10 c0 -31 -3 -35 -25
-35 -20 0 -25 5 -25 25 0 22 15 36 48 44 1 1 2 -15 2 -34z m-15 -64 c3 -6 3
-28 -1 -50 -6 -35 -10 -41 -31 -41 -23 0 -24 2 -19 42 7 48 34 75 51 49z
m-2721 -56 c-6 -16 -24 -21 -24 -7 0 11 11 22 21 22 5 0 6 -7 3 -15z m26 -65
c0 -5 -2 -10 -4 -10 -3 0 -8 5 -11 10 -3 6 -1 10 4 10 6 0 11 -4 11 -10z
m2680 -25 c0 -20 -5 -25 -25 -25 -20 0 -25 5 -25 25 0 20 5 25 25 25 20 0 25
-5 25 -25z m-12 -87 c-3 -28 -7 -34 -32 -36 -26 -3 -28 -1 -23 20 4 13 7 29 7
36 0 6 12 12 26 12 23 0 25 -3 22 -32z m-8 -90 c0 -33 -14 -51 -36 -46 -39 7
-29 68 11 68 19 0 25 -5 25 -22z"/>
<path d="M2632 4963 c-24 -8 -42 -16 -40 -18 5 -5 106 19 114 28 12 12 -28 7
-74 -10z"/>
<path d="M2425 4880 c-74 -37 -139 -77 -170 -105 -57 -53 -44 -50 32 8 53 40
237 137 260 137 6 0 15 5 18 10 13 21 -23 8 -140 -50z"/>
<path d="M2665 4755 c-61 -13 -169 -69 -222 -115 -63 -55 -101 -139 -83 -186
12 -31 82 -100 110 -109 39 -12 32 2 -12 26 -50 28 -88 80 -88 122 0 106 223
257 379 257 70 0 75 -7 68 -90 -14 -162 -130 -310 -245 -310 -17 0 -34 -5 -38
-12 -11 -17 78 -2 124 21 46 24 91 72 125 131 33 59 44 100 52 186 6 69 5 71
-20 82 -32 15 -73 14 -150 -3z"/>
<path d="M2160 4695 c-13 -14 -21 -27 -18 -30 2 -3 17 9 33 25 16 17 24 30 19
30 -6 0 -21 -11 -34 -25z"/>
<path d="M4095 4592 c-41 -25 -79 -83 -110 -167 -41 -109 -48 -370 -11 -420
23 -32 55 -9 89 62 58 125 46 272 -25 309 -37 19 -37 52 3 121 22 37 42 59 64
69 49 20 72 8 101 -52 25 -52 37 -64 48 -45 8 13 -28 93 -51 113 -30 28 -74
31 -108 10z m-47 -275 c14 -16 18 -147 6 -192 -4 -16 -19 -48 -33 -70 -24 -39
-25 -40 -31 -15 -11 44 -12 255 -1 283 9 23 14 26 29 18 10 -5 24 -16 30 -24z"/>
<path d="M2460 4546 c0 -9 7 -16 16 -16 9 0 14 5 12 12 -6 18 -28 21 -28 4z"/>
<path d="M1807 4386 c-59 -62 -92 -112 -78 -121 6 -3 22 15 36 40 15 24 49 65
77 90 30 27 44 45 34 45 -9 0 -40 -24 -69 -54z"/>
<path d="M1970 4406 c0 -4 11 -22 25 -40 64 -84 85 -154 65 -216 -7 -21 -8
-18 -9 18 -1 24 -6 52 -11 63 -22 40 -121 11 -174 -52 -31 -36 -69 -115 -63
-132 2 -6 11 9 21 34 44 112 180 192 207 122 16 -42 6 -221 -15 -260 -15 -30
-20 -33 -65 -33 -42 0 -54 5 -97 43 -26 23 -42 33 -34 21 30 -43 81 -77 123
-81 35 -4 47 -1 70 21 15 14 30 39 33 56 4 16 11 30 15 30 9 0 3 -250 -6 -280
-6 -19 21 -60 62 -94 26 -22 35 -25 55 -15 12 6 36 29 51 51 23 32 26 43 15
50 -14 10 -112 5 -139 -6 -25 -11 -27 8 -18 164 4 80 8 195 8 255 l1 111 -46
74 c-46 75 -74 111 -74 96z"/>
<path d="M1852 4058 c6 -18 28 -21 28 -4 0 9 -7 16 -16 16 -9 0 -14 -5 -12
-12z"/>
<path d="M2395 3342 c-56 -26 -71 -46 -57 -77 14 -31 35 -31 106 0 60 27 77
48 55 70 -24 24 -62 26 -104 7z m79 -20 c8 -13 -89 -56 -108 -49 -26 10 -18
24 22 40 42 18 78 21 86 9z"/>
<path d="M4664 2038 c-51 -100 -120 -205 -217 -332 -219 -284 -293 -444 -286
-619 l4 -86 43 -44 c64 -65 115 -87 201 -87 90 0 179 29 246 80 102 77 299
196 545 327 139 74 326 151 444 183 46 12 61 19 42 19 -61 2 -391 -124 -556
-212 -110 -59 -354 -202 -389 -229 -31 -24 -35 -19 -16 20 27 52 38 149 24
206 -22 95 -59 139 -144 176 -41 18 -61 21 -115 16 -36 -3 -75 -9 -87 -12 -37
-10 -28 14 33 96 39 51 47 66 25 45 -18 -16 -53 -58 -79 -93 -41 -57 -120
-128 -130 -118 -6 7 25 58 87 141 252 337 379 538 368 583 -2 10 -19 -13 -43
-60z m-140 -639 c29 -23 34 -60 11 -79 -8 -6 -35 -18 -60 -26 -40 -12 -52 -12
-81 1 -46 19 -47 55 -1 88 53 41 93 46 131 16z"/>
<path d="M2871 1004 c-12 -15 -21 -34 -21 -44 0 -18 30 -50 47 -50 16 0 63 59
63 79 0 45 -58 55 -89 15z"/>
<path d="M1718 383 c-69 -91 -77 -100 -215 -264 -46 -53 -83 -101 -83 -106 0
-4 74 -9 164 -11 l163 -3 7 32 c3 17 6 72 6 121 0 50 7 138 16 195 8 58 14
109 12 115 -2 5 -34 -30 -70 -79z"/>
<path d="M4801 313 c0 -16 6 -89 13 -163 8 -74 12 -138 9 -142 -2 -5 14 -8 36
-8 l40 0 -14 43 c-13 38 -65 270 -65 289 0 4 -4 8 -10 8 -5 0 -10 -12 -9 -27z"/>
<path d="M4684 268 c2 -29 14 -101 26 -161 23 -106 23 -107 51 -107 34 0 33
-3 13 46 -14 33 -33 103 -69 252 -10 42 -24 22 -21 -30z"/>
</g>
</svg>
